<svg xmlns="http://www.w3.org/2000/svg" xmlns:xlink="http://www.w3.org/1999/xlink" viewBox="0 0 200 70" xmlns:v="https://vecta.io/nano"><symbol id="A" viewBox="-6.04 -6.11 12.07 12.22"><radialGradient id="B" cx="7525.373" cy="6971.139" r="74.568" gradientTransform="matrix(0.7094 0.7048 -0.7048 0.7094 -396.4228 -10316.1387)" gradientUnits="userSpaceOnUse"><stop offset="0" stop-color="#fff" stop-opacity=".7"/><stop offset=".373" stop-color="#fffefc" stop-opacity=".812"/><stop offset=".507" stop-color="#fffbf3" stop-opacity=".852"/><stop offset=".603" stop-color="#fff6e8" stop-opacity=".881"/><stop offset=".68" stop-color="#fff1da" stop-opacity=".904"/><stop offset=".746" stop-color="#ffebc7" stop-opacity=".924"/><stop offset=".805" stop-color="#ffe3b1" stop-opacity=".942"/><stop offset=".858" stop-color="#ffda96" stop-opacity=".957"/><stop offset=".907" stop-color="#ffd078" stop-opacity=".972"/><stop offset=".952" stop-color="#fec452" stop-opacity=".986"/><stop offset=".993" stop-color="#fdb91f" stop-opacity=".998"/><stop offset="1" stop-color="#fdb714"/></radialGradient><use xlink:href="#E" fill="url(#B)"/><linearGradient id="C" gradientUnits="userSpaceOnUse" x1="-6.084" y1="-2.906" x2="0.878" y2="-0.114"><stop offset="0" stop-color="#fff" stop-opacity=".7"/><stop offset=".373" stop-color="#fffefc" stop-opacity=".812"/><stop offset=".507" stop-color="#fffbf3" stop-opacity=".852"/><stop offset=".602" stop-color="#fff6e8" stop-opacity=".881"/><stop offset=".68" stop-color="#fff1da" stop-opacity=".904"/><stop offset=".746" stop-color="#ffebc7" stop-opacity=".924"/><stop offset=".805" stop-color="#ffe3b1" stop-opacity=".942"/><stop offset=".858" stop-color="#ffda96" stop-opacity=".957"/><stop offset=".907" stop-color="#ffd078" stop-opacity=".972"/><stop offset=".952" stop-color="#fec452" stop-opacity=".986"/><stop offset=".992" stop-color="#fdb91f" stop-opacity=".998"/><stop offset="1" stop-color="#fdb714"/></linearGradient><use xlink:href="#E" opacity=".4" fill="url(#C)"/></symbol><g fill="#17263e"><path d="M192.6 11.53c0-1.88 1.42-3.3 3.3-3.3s3.3 1.42 3.3 3.3-1.42 3.3-3.3 3.3-3.3-1.42-3.3-3.3zm6.18 0c0-1.68-1.25-2.95-2.88-2.95s-2.88 1.27-2.88 2.95 1.25 2.95 2.88 2.95 2.88-1.27 2.88-2.95zm-2.31-.07v.11c.39.07.59.24.7.59.11.28.2.46.31.57s.24.17.44.2v.22h-.74c-.42 0-.57-.17-.74-.61l-.2-.5c-.09-.26-.24-.33-.55-.33h-.11v1.07l.52.15v.22h-1.92v-.22l.57-.15v-2.6l-.57-.15v-.25h2.01c.81 0 1.2.39 1.2.83s-.31.74-.92.85zm-.59-1.37l-.31-.02v1.35h.26c.48 0 .7-.28.7-.68.01-.43-.24-.65-.65-.65zM79.65 12.61l-2.13-.69v-.49h8.94v.49l-2.5.69v15.96l2.5.69v.49h-8.94v-.49l2.13-.69v-7.68h-7.36v7.68l2.13.69v.49h-8.94v-.49l2.5-.69V12.61l-2.5-.69v-.49h8.94v.49l-2.13.69v6.99h7.36v-6.99zm12.91 17.6c-4.63 0-6.73-3.28-6.73-6.99 0-3.45 2.47-6.96 7.07-6.96 4.63 0 6.73 3.28 6.73 6.96.01 3.45-2.44 6.99-7.07 6.99zm.17-13.03c-2.07 0-2.96 2.44-2.96 6.04 0 3.59.89 6.04 2.96 6.04s2.96-2.44 2.96-6.04c.01-3.6-.88-6.04-2.96-6.04zm22.38 11.5v.29l-5.12 1.27-.12-.06.06-2.3-.12-.09c-1.7 1.61-3.34 2.42-4.89 2.42-2.62 0-3.57-1.96-3.57-4v-7.42l-1.64-1.12v-.29l5.2-1.21.12.09v8.8c0 1.61.4 2.79 2.07 2.79 1.01 0 1.61-.14 2.59-.52v-8.54l-1.64-1.12v-.29l5.21-1.21.12.09v11.59l1.73.83zm5.72 1.53c-1.73 0-3.19-.26-4.51-.78l-.09-3.94.58-.06c2.1 2.85 3.16 3.8 4.66 3.8 1.15 0 1.84-.81 1.84-1.96 0-1.44-1.52-2.01-3.16-2.67-1.87-.78-3.88-1.67-3.88-4.2 0-2.27 2.24-4.14 5.35-4.14 1.12 0 2.79.23 3.59.52l.09 3.57-.58.12c-1.73-2.33-2.47-3.22-3.85-3.22-1.12 0-1.75.89-1.75 1.75 0 1.47 1.55 2.04 3.19 2.7 1.87.75 3.88 1.64 3.88 4.14-.01 2.67-2.6 4.37-5.36 4.37zm10.38-7.68c.03 3.51.78 5.69 4.06 5.69 1.44 0 2.65-.26 4.43-.75l.17.37c-1.73 1.35-4 2.36-5.84 2.36-4.17 0-6.7-2.7-6.7-6.7 0-4.17 3.39-7.25 6.84-7.25 4.03 0 5.92 2.67 5.84 6.27h-8.8zm5.18-1.15c-.06-2.88-.83-4.2-2.42-4.2-1.52 0-2.59 1.78-2.73 4.51l5.15-.31zm11.82-2.79a6.25 6.25 0 0 0-2.7.55v9.52l1.44.69v.4h-6.84v-.4l1.73-.69V11.63l-1.9-1.35v-.29l5.46-1.55.12.09v9.98l.12.06c1.7-1.61 3.22-2.3 4.77-2.3 2.59 0 3.59 1.93 3.59 3.97v8.43l1.73.69v.4h-6.84v-.4l1.44-.69v-7.28c-.02-1.62-.46-2.8-2.12-2.8zm14.03 11.62c-4.63 0-6.73-3.28-6.73-6.99 0-3.45 2.47-6.96 7.07-6.96 4.63 0 6.73 3.28 6.73 6.96 0 3.45-2.44 6.99-7.07 6.99zm.17-13.03c-2.07 0-2.96 2.44-2.96 6.04 0 3.59.89 6.04 2.96 6.04s2.96-2.44 2.96-6.04-.89-6.04-2.96-6.04zm13.6 12.16v.4h-7.22v-.4l1.81-.69V11.63l-1.87-1.35v-.29l5.44-1.55.12.09v20.13l1.72.68zm15.39-.46v.29l-5.18 1.06-.12-.06-.23-1.55-.12-.06-.43.35c-1.01.81-2.19 1.29-3.42 1.29-2.99 0-5.69-2.16-5.69-6.59 0-4.49 3.36-7.36 7.19-7.36 1.01 0 1.7.12 2.39.32v-4.95l-1.87-1.35v-.28l5.44-1.55.14.09v19.64l1.9.71zm-7.45-.6c.58 0 1.29-.26 1.84-.6v-9.03c-.72-.92-1.38-1.41-2.65-1.41-1.47 0-2.99 1.44-2.99 5.46 0 3.71 1.36 5.58 3.8 5.58zM81.58 54.64c-1.84.98-3.34 1.52-5.95 1.52-5.78 0-9.81-3.74-9.81-9.4 0-5.32 4.17-9.78 9.86-9.78 1.47 0 3.13.32 4.23.89l1.24-.98h.32l.23 6.15-.46.06c-1.93-3.85-3.85-5.29-6.73-5.29-2.53 0-5.35 2.47-5.35 8.46 0 5.87 3.28 8.92 7.22 8.92.86 0 1.58-.12 2.24-.4l3.25-4.05.26.12-.55 3.78z"/><use xlink:href="#F"/><path d="M101.79 56.2c-.92 0-1.73-.12-2.53-.32v4.83l2.19.69v.37h-6.53v-.37l1.9-.69V44.87l-1.87-1.21v-.26l4.03-1.04.12.09-.06 2.3.12.06c1.44-1.52 2.82-2.42 4.51-2.42 2.9 0 5.15 2.53 5.15 6.53-.01 3.74-2.68 7.28-7.03 7.28zm.29-11.99c-.95 0-2.1.49-2.82 1.01v8.86c1.01.89 2.01 1.38 3.28 1.38 1.84 0 3.71-1.84 3.71-5.95 0-3.18-1.52-5.3-4.17-5.3zm6.64-.55v-.26l4.2-1.04.12.09v12.39l1.93.52v.37h-6.36v-.37l2.01-.52v-9.98l-1.9-1.2zm3.19-7.22c.89 0 1.55.66 1.55 1.55 0 .92-.75 1.75-1.73 1.75-.89 0-1.52-.66-1.52-1.58.01-.89.76-1.72 1.7-1.72zm7.42 19.53c-2.19 0-2.82-.98-2.82-3.02v-8.8h-2.01v-.37l2.24-1.5 1.7-2.62h.49v3.25h4.37v1.24h-4.37v7.82c0 1.04.09 1.7.69 2.1.4.23 1.12.35 2.13.35l1.61-.06.03.29c-1.27.77-2.7 1.32-4.06 1.32z"/><use xlink:href="#F" x="41.12"/><path d="M143.52 55.36v.37h-6.36v-.37l2.01-.52V37.07l-2.1-1.24v-.29l4.43-1.12.12.06v20.36l1.9.52z"/></g><use xlink:href="#A" width="12.07" height="12.22" x="-6.04" y="-6.11" transform="matrix(1.1805 0 0 -1.1805 18.1354 15.4447)"/><use xlink:href="#A" width="12.07" height="12.22" x="-6.04" y="-6.11" transform="matrix(.8347 .8347 .8347 -.8347 33.21 15.136)"/><use xlink:href="#A" width="12.07" height="12.22" x="-6.04" y="-6.11" transform="matrix(0 1.1805 1.1805 0 44.0744 25.5763)"/><use xlink:href="#A" width="12.07" height="12.22" x="-6.04" y="-6.11" transform="matrix(-.8347 .8347 .8347 .8347 44.3831 40.6508)"/><use xlink:href="#A" width="12.07" height="12.22" x="-6.04" y="-6.11" transform="matrix(-1.1805 0 0 1.1805 33.9787 51.4972)"/><use xlink:href="#A" width="12.07" height="12.22" x="-6.04" y="-6.11" transform="matrix(-.8347 -.8347 -.8347 .8347 18.9042 51.8059)"/><use xlink:href="#A" width="12.07" height="12.22" x="-6.04" y="-6.11" transform="matrix(0 -1.1805 -1.1805 0 8.0398 41.3944)"/><use xlink:href="#A" width="12.07" height="12.22" x="-6.04" y="-6.11" transform="matrix(.8347 -.8347 -.8347 -.8347 7.731 26.3198)"/><defs ><path id="E" d="M3.24-5.65L6 2.9c.11.35-.08.72-.43.84l-7.24 2.34c-.31.1-.65-.04-.79-.33L-5.96-1c-.17-.32-.04-.72.28-.89L2.3-6.04a.67.67 0 0 1 .94.39z"/><path id="F" d="M92.94 54.1c0 .83.69 1.09 2.42.92l.06.32c-.55.37-1.98.86-3.02.86-1.09 0-1.67-.6-1.75-2.13l-.12-.06c-1.32 1.32-2.79 2.19-4.34 2.19-1.87 0-3.08-1.09-3.08-2.85 0-2.59 3.08-4 7.42-4.57v-2.16c0-1.93-1.24-2.93-2.96-2.93-.63 0-1.38.14-2.13.43.63.52.89 1.12.89 1.67 0 .72-.55 1.38-1.35 1.38-.86 0-1.38-.66-1.38-1.41 0-1.81 2.99-3.34 5.72-3.34 2.53 0 3.62 1.35 3.62 3.94v7.74zm-2.42-4.49c-3.68 0-4.89 1.32-4.89 2.88 0 1.24.81 1.98 2.07 1.98.78 0 1.75-.29 2.82-.86v-4z"/></defs></svg>